<svg xmlns="http://www.w3.org/2000/svg" xmlns:xlink="http://www.w3.org/1999/xlink" stroke="#000" stroke-width="2" font-family="Arial" font-size="18" version="1.1" viewBox="0 0 1000 500"><g><symbol id="leftArrow"><polygon points="14 2 0 7 14 12"/></symbol><symbol id="rightArrow"><polygon points="0 2 14 7 0 12"/></symbol><line x1="30" x2="30" y1="20" y2="460"/><text x="5" y="300" stroke="none" font-size="32">0</text><text x="500" y="300" stroke="none" font-size="42" text-anchor="middle">Presentation Timeline</text><text x="55" y="300" stroke="none">* Not real fields/methods</text></g><g><text x="500" y="230" stroke="none" font-size="32" text-anchor="middle">Live Case</text><line x1="30" x2="900" y1="170" y2="170"/><use x="893" y="163" xlink:href="#rightArrow"/><text x="40" y="193" stroke="none">Presentation</text><text x="40" y="210" stroke="none">Start Time</text><line x1="250" x2="250" y1="30" y2="170"/><text x="250" y="193" stroke="none" text-anchor="middle">Availability Start /</text><text x="250" y="210" stroke="none" text-anchor="middle">Earliest Start</text><line x1="385" x2="385" y1="70" y2="170"/><text x="385" y="193" stroke="none" text-anchor="middle">Safe Start</text><line x1="595" x2="595" y1="120" y2="170"/><text x="595" y="193" stroke="none" text-anchor="middle">Seek Range End</text><line x1="750" x2="750" y1="30" y2="170"/><text x="750" y="193" stroke="none" text-anchor="middle">Availability End /</text><text x="750" y="210" stroke="none" text-anchor="middle">Live Edge</text><line x1="880" x2="880" y1="120" y2="170"/><text x="860" y="193" stroke="none">Now*</text><text x="300" y="28" stroke="none">Segment Availability Duration / Availability Window</text><line x1="260" x2="735" y1="45" y2="45"/><use x="251" y="38" xlink:href="#leftArrow"/><use x="733" y="38" xlink:href="#rightArrow"/><text x="525" y="80" stroke="none">Safe Window*</text><line x1="395" x2="735" y1="97" y2="97"/><use x="387" y="90" xlink:href="#leftArrow"/><use x="733" y="90" xlink:href="#rightArrow"/><text x="440" y="130" stroke="none">Seek Range*</text><line x1="260" x2="590" y1="150" y2="150"/><use x="251" y="143" xlink:href="#leftArrow"/><use x="577" y="143" xlink:href="#rightArrow"/><text x="598" y="130" stroke="none">Presentation delay</text><line x1="605" x2="745" y1="150" y2="150"/><use x="596" y="143" xlink:href="#leftArrow"/><use x="733" y="143" xlink:href="#rightArrow"/><text x="773" y="130" stroke="none">Clock offset</text><line x1="760" x2="870" y1="150" y2="150"/><use x="751" y="143" xlink:href="#leftArrow"/><use x="864" y="143" xlink:href="#rightArrow"/></g><g><text x="500" y="450" stroke="none" font-size="32" text-anchor="middle">On-Demand Case</text><line x1="30" x2="870" y1="400" y2="400"/><text x="40" y="424" stroke="none">Availability Start</text><line x1="250" x2="250" y1="350" y2="400"/><text x="250" y="424" stroke="none" text-anchor="middle">Earliest Start /</text><text x="250" y="442" stroke="none" text-anchor="middle">Safe Start /</text><text x="250" y="460" stroke="none" text-anchor="middle">Max First Segment Start Time</text><line x1="869" x2="869" y1="350" y2="400"/><text x="870" y="424" stroke="none" text-anchor="middle">Duration</text><text x="870" y="442" stroke="none" text-anchor="middle">Availability End</text><text x="500" y="368" stroke="none">Seek Range*</text><line x1="260" x2="854" y1="380" y2="380"/><use x="251" y="374" xlink:href="#leftArrow"/><use x="853" y="374" xlink:href="#rightArrow"/></g></svg>